# Object Export From Tinkercad Server 2015

mtllib obj.mtl

o obj_0
v 6.5 		12.5028 		16
v 6.5 		15 		16
v 6.5 		-12.5028 		16
v 11 		-12.5028 		16
v 13.851 		-8.549 		9.482
v 11 		-13.722 		16
v 13.903 		-9.071 		9.867
v 6.5 		-15 		16
v 13.728 		-9.346 		9.867
v 13.588 		-9.643 		9.867
v 13.487 		-9.956 		9.867
v 13.037 		-10.611 		9.468
v 13.963 		-10.5936 		11.9345
v 13.061 		-10.992 		9.469
v 13.132 		-11.366 		9.47
v 13.249 		-11.727 		9.472
v 13.41 		-12.069 		9.474
v 13.4261 		-10.2805 		9.475
v 13.426 		-10.281 		9.475
v 13.405 		-10.611 		9.4741
v 13.728 		-11.876 		9.4793
v 13.7281 		-11.8762 		9.4793
v 13.4261 		-10.9415 		9.475
v 13.487 		-11.266 		9.4758
v 13.487 		-11.2661 		9.4758
v 13.5882 		-11.5795 		9.4776
v 13.9034 		-12.1514 		9.4828
v 13.903 		-12.151 		9.4828
v 13.588 		-11.579 		9.4775
v 13.426 		-10.941 		9.475
v 13.426 		-10.281 		9.867
v 13.405 		-10.611 		9.867
v 13.426 		-10.941 		9.867
v 11 		-12.5024 		16.006
v 13.487 		-11.266 		9.867
v 13.588 		-11.579 		9.867
v 13.728 		-11.876 		9.867
v 13.903 		-12.151 		9.867
v 13.611 		-12.387 		9.478
v 13.851 		-12.674 		9.482
v 25.503 		2.439 		23.849
v 25.503 		3.629 		23.658
v 17.526 		-9.847 		11.807
v 17.419 		-9.619 		11.81
v 25.503 		4.784 		23.393
v 16.942 		-9.048 		11.819
v 25.503 		5.894 		23.057
v 16.9293 		-9.0654 		11.8187
v 16.9131 		-9.0508 		11.8189
v 16.741 		-8.907 		11.821
v 25.503 		6.946 		22.653
v 16.7308 		-8.9256 		11.8207
v 16.534 		-13.428 		9.526
v 16.523 		-8.795 		11.823
v 25.503 		7.932 		22.185
v 16.878 		-13.306 		9.532
v 17.203 		-13.137 		9.537
v 25.503 		8.841 		21.658
v 25.503 		9.665 		21.076
v 25.503 		10.395 		20.445
v 25.503 		11.026 		19.771
v 17.506 		-12.925 		9.542
v 25.503 		11.551 		19.061
v 25.503 		11.964 		18.321
v 17.779 		-12.674 		9.547
v 25.503 		12.262 		17.559
v 25.503 		12.442 		16.782
v 16.5161 		-8.8124 		11.8227
v 16.4879 		-8.798 		11.8229
v 25.5 		12.5028 		16
v 25.503 		12.5028 		16
v 17.0192 		-12.8024 		9.534
v 17.02 		-12.802 		9.534
v 25.503 		0 		24.003
v 25.503 		1.225 		23.964
v 17.282 		-12.619 		9.5383
v 17.2822 		-12.6188 		9.5383
v 28 		-1.47 		25.952
v 28 		0 		26
v 28 		-2.926 		25.808
v 16.4388 		-13.055 		9.5244
v 28 		-4.354 		25.569
v 28 		-5.74 		25.239
v 16.7372 		-12.9489 		9.5296
v 28 		-7.071 		24.819
v 28 		-8.334 		24.315
v 28 		-9.516 		23.73
v 16.439 		-13.055 		9.5244
v 16.737 		-12.949 		9.5296
v 28 		-10.607 		23.071
v 17.6399 		-10.3385 		11.799
v 16.439 		-13.055 		9.867
v 17.779 		-8.549 		9.547
v 17.506 		-8.297 		9.542
v 16.737 		-12.949 		9.867
v 17.02 		-12.802 		9.867
v 17.651 		-10.337 		11.799
v 17.282 		-12.619 		9.867
v 17.6426 		-10.3523 		11.7988
v 17.6606 		-10.611 		11.7947
v 14.124 		-12.925 		9.486
v 17.6459 		-10.8701 		11.7906
v 17.6365 		-10.922 		11.7898
v 17.6474 		-10.8445 		11.791
v 17.651 		-10.845 		11.791
v 14.426 		-13.137 		9.491
v 17.667 		-10.591 		11.795
v 18.143 		-9.956 		9.5522
v 18.143 		-9.9559 		9.5522
v 18.498 		-9.856 		9.558
v 18.568 		-10.23 		9.56
v 18.041 		-9.643 		9.5504
v 14.752 		-13.306 		9.496
v 15.096 		-13.428 		9.502
v 15.452 		-13.503 		9.508
v 6.5 		15 		0
v 6.5 		-15 		0
v -6.536 		-10 		0
v 3.464 		-10 		14.142
v 15.815 		-13.528 		9.514
v 3.464 		-10 		0
v -6.536 		10 		0
v 3.464 		10 		14.142
v 3.464 		10 		0
v 1.9558 		-8.002 		12.0091
v -6.536 		-8.002 		0
v -6.536 		8.002 		0
v 1.9558 		8.002 		12.0091
v 14.026 		-10.1145 		13.198
v 3.464 		-8.002 		9.6922
v 3.464 		-8.002 		10.9287
v 3.464 		8.002 		10.9287
v 3.464 		8.002 		9.6922
v 14.104 		-9.8734 		13.198
v -3.9492 		-8.002 		0
v -3.9492 		8.002 		0
v 14.1403 		-9.796 		13.198
v 14.211 		-9.6454 		13.198
v 14.2571 		-9.573 		13.198
v 4 		10.607 		23.071
v 4 		11.595 		22.344
v 4 		12.472 		21.556
v 4 		13.229 		20.714
v 4 		13.858 		19.827
v 4 		14.354 		18.903
v 4 		14.712 		17.951
v 4 		14.928 		16.98
v 4 		15 		16
v 4 		0 		26
v 4 		1.47 		25.952
v 4 		2.926 		25.808
v 4 		4.354 		25.569
v 14.8241 		-12.2565 		13.198
v 4 		5.74 		25.239
v 4 		7.071 		24.819
v 4 		8.334 		24.315
v 4 		9.516 		23.73
v 14.687 		-12.1608 		13.198
v 14.6283 		-12.1066 		13.198
v 14.505 		-11.9927 		13.198
v 4 		-15 		16
v 4 		-14.928 		16.98
v 4 		-14.712 		17.951
v 4 		-14.354 		18.903
v 4 		-13.858 		19.827
v 4 		-13.229 		20.714
v 4 		-12.472 		21.556
v 4 		-11.595 		22.344
v 4 		-10.607 		23.071
v 14.346 		-11.8017 		13.198
v 4 		-9.516 		23.73
v 4 		-8.334 		24.315
v 4 		-7.071 		24.819
v 4 		-5.74 		25.239
v 4 		-4.354 		25.569
v 4 		-2.926 		25.808
v 4 		-1.47 		25.952
v 4 		-15 		0
v 4 		15 		0
v 13.979 		-10.3642 		13.198
v 13.9683 		-10.5328 		13.198
v 13.963 		-10.6177 		13.198
v 13.9948 		-10.2806 		13.198
v 14.3021 		-11.733 		13.198
v 14.211 		-11.5906 		13.198
v 14.104 		-11.3619 		13.198
v 14.176 		-11.5161 		13.198
v 14.0784 		-11.2827 		13.198
v 14.026 		-11.1215 		13.198
v 14.0105 		-11.0392 		13.198
v 13.979 		-10.8717 		13.198
v 16.741 		-12.3018 		13.198
v 16.6711 		-12.3381 		13.198
v 16.523 		-12.4149 		13.198
v 16.4497 		-12.4411 		13.198
v 16.294 		-12.4962 		13.198
v 16.2183 		-12.5119 		13.198
v 16.057 		-12.5459 		13.198
v 15.815 		-12.5629 		13.198
v 15.573 		-12.5459 		13.198
v 15.336 		-12.4962 		13.198
v 15.4973 		-12.5303 		13.198
v 6.498 		1.225 		23.964
v 6.498 		0 		24.003
v 15.2624 		-12.47 		13.198
v 15.106 		-12.4149 		13.198
v 6.498 		2.439 		23.849
v 14.889 		-12.3018 		13.198
v 6.498 		3.629 		23.658
v 15.0365 		-12.3787 		13.198
v 6.498 		4.784 		23.393
v 6.498 		5.894 		23.057
v 6.498 		6.946 		22.653
v 15.8617 		-10.4773 		16.006
v 6.498 		7.932 		22.185
v 15.8436 		-10.4557 		16.006
v 6.498 		8.841 		21.658
v 15.823 		-10.4369 		16.006
v 6.498 		9.665 		21.076
v 15.8001 		-10.4211 		16.006
v 15.7756 		-10.4085 		16.006
v 6.498 		10.395 		20.445
v 15.7497 		-10.3995 		16.006
v 15.7228 		-10.3941 		16.006
v 15.6957 		-10.3924 		16.006
v 15.6685 		-10.3944 		16.006
v 15.6419 		-10.4002 		16.006
v 15.6162 		-10.4095 		16.006
v 15.5919 		-10.4223 		16.006
v 15.5694 		-10.4383 		16.006
v 15.5491 		-10.4572 		16.006
v 19.889 		-13.722 		13.198
v 19.889 		-7.5 		13.198
v 17.667 		-10.6177 		13.198
v 15.5313 		-10.4786 		16.006
v 17.6041 		-11.0938 		11.7895
v 16.523 		-8.8211 		13.198
v 17.604 		-11.094 		11.7895
v 16.741 		-8.9338 		13.198
v 16.5985 		-8.8599 		13.198
v 16.942 		-9.0749 		13.198
v 16.8105 		-8.9826 		13.198
v 17.124 		-9.2429 		13.198
v 17.0047 		-9.1327 		13.198
v 17.284 		-9.434 		13.198
v 17.419 		-9.6454 		13.198
v 17.3302 		-9.5065 		13.198
v 17.526 		-9.8734 		13.198
v 17.4554 		-9.723 		13.198
v 17.604 		-10.1145 		13.198
v 17.6198 		-10.1984 		13.198
v 17.651 		-10.3642 		13.198
v 14.0207 		-10.1187 		11.9272
v 14.0233 		-10.1045 		11.9224
v 14.026 		-10.0902 		11.9175
v 15.5164 		-10.5023 		16.006
v 6.498 		11.026 		19.771
v 15.5044 		-10.5279 		16.006
v 6.498 		11.551 		19.061
v 15.4958 		-10.5548 		16.006
v 6.498 		11.964 		18.321
v 6.498 		12.262 		17.559
v 15.4905 		-10.5826 		16.006
v 6.498 		12.442 		16.782
v 15.4888 		-10.611 		16.006
v 14.0935 		-9.8817 		11.9184
v 6.498 		12.5028 		16
v 14.104 		-9.8489 		11.9069
v 15.4905 		-10.6394 		16.006
v 15.4958 		-10.6672 		16.006
v 15.5044 		-10.6941 		16.006
v 15.5164 		-10.7197 		16.006
v 15.5313 		-10.7434 		16.006
v 14.1947 		-9.6557 		11.9073
v 14.2065 		-9.6302 		11.8982
v 14.211 		-9.6206 		11.8947
v 15.8617 		-10.7448 		16.006
v 14.3229 		-9.4449 		11.898
v 17.5946 		-11.1234 		11.7986
v 15.5491 		-10.7649 		16.006
v 15.5694 		-10.7837 		16.006
v 15.5919 		-10.7997 		16.006
v 15.6162 		-10.8125 		16.006
v 15.6419 		-10.8218 		16.006
v 15.6685 		-10.8276 		16.006
v 15.6957 		-10.8296 		16.006
v 15.7228 		-10.8279 		16.006
v 15.7497 		-10.8225 		16.006
v 15.7756 		-10.8135 		16.006
v 18.041 		-9.6429 		9.5504
v 28 		-11.595 		22.344
v 28 		-12.472 		21.556
v 28 		-13.229 		20.714
v 25.5 		-12.5028 		16
v 25.503 		-12.442 		16.782
v 25.503 		-12.5028 		16
v 25.503 		-12.262 		17.559
v 25.503 		-11.964 		18.321
v 25.503 		-11.551 		19.061
v 25.503 		-11.026 		19.771
v 16.177 		-13.503 		9.52
v 25.503 		-10.395 		20.445
v 25.503 		-9.665 		21.076
v 25.503 		-8.841 		21.658
v 17.5265 		-11.3337 		11.7972
v 17.526 		-11.3353 		11.7972
v 25.503 		-7.932 		22.185
v 25.503 		-6.946 		22.653
v 25.503 		-5.894 		23.057
v 25.503 		-4.784 		23.393
v 25.503 		-3.629 		23.658
v 25.503 		-2.439 		23.849
v 25.503 		-1.225 		23.964
v 14.9055 		-12.2857 		11.9276
v 14.889 		-12.2771 		11.9274
v 17.5113 		-11.3668 		11.8073
v 17.4203 		-11.5607 		11.8055
v 17.419 		-11.5635 		11.8055
v 14.8637 		-12.2596 		11.9367
v 14.7026 		-12.147 		11.933
v 14.687 		-12.1361 		11.9326
v 28 		15 		16
v 25.5 		15 		16
v 17.2866 		-11.7707 		11.8168
v 17.284 		-11.7748 		11.8168
v 14.5194 		-11.9815 		11.9395
v 14.505 		-11.9682 		11.9394
v 17.3982 		-11.5962 		11.8169
v 14.6681 		-12.1189 		11.9406
v 14.4923 		-11.9531 		11.9457
v 14.346 		-11.7773 		11.9447
v 17.2569 		-11.8074 		11.8293
v 17.124 		-11.9661 		11.8285
v 14.338 		-11.7648 		11.9493
v 17.0915 		-11.9963 		11.8414
v 16.9478 		-12.129 		11.8379
v 16.942 		-12.1343 		11.8378
v 16.7486 		-12.2702 		11.8478
v 16.741 		-12.2756 		11.8477
v 13.978 		-10.3557 		11.9326
v 13.979 		-10.3395 		11.9273
v 16.9048 		-12.1606 		11.8509
v 13.9775 		-10.363 		11.9351
v 18.381 		-9.495 		9.556
v 17.519 		-8.822 		9.5426
v 17.282 		-8.604 		9.5383
v 17.2818 		-8.6038 		9.5383
v 17.02 		-8.42 		9.534
v 17.0192 		-8.4196 		9.534
v 14.2215 		-11.5827 		11.9441
v 14.211 		-11.5662 		11.9437
v 17.7267 		-9.0707 		9.5461
v 17.519 		-8.822 		9.5426
v 14.1123 		-11.3559 		11.9459
v 14.104 		-11.3381 		11.946
v 18.018 		-8.836 		9.551
v 6.498 		-12.442 		16.782
v 6.498 		-12.5028 		16
v 16.7372 		-8.2731 		9.5296
v 16.737 		-8.273 		9.5296
v 6.498 		-12.262 		17.559
v 6.498 		-11.964 		18.321
v 14.2073 		-11.5583 		11.9464
v 6.498 		-11.551 		19.061
v 17.6564 		-10.4493 		13.198
v 17.651 		-10.8717 		13.198
v 17.604 		-11.1215 		13.198
v 17.6354 		-10.9542 		13.198
v 17.5783 		-11.2008 		13.198
v 14.0274 		-11.1013 		11.9458
v 14.026 		-11.0971 		11.9443
v 17.526 		-11.3619 		13.198
v 17.419 		-11.5906 		13.198
v 17.491 		-11.4365 		13.198
v 14.1033 		-11.3358 		11.9468
v 14.0319 		-11.1152 		11.9459
v 17.284 		-11.8017 		13.198
v 17.375 		-11.6594 		13.198
v 17.124 		-11.9927 		13.198
v 16.942 		-12.1608 		13.198
v 17.0652 		-12.047 		13.198
v 16.8774 		-12.2062 		13.198
v 17.9019 		-9.3458 		9.5487
v 17.727 		-9.071 		9.5461
v 15.573 		-8.6897 		13.198
v 15.815 		-8.6731 		13.198
v 15.6572 		-8.6842 		13.198
v 13.981 		-10.8585 		11.9444
v 13.979 		-10.8478 		11.9408
v 18.22 		-9.153 		9.554
v 13.9824 		-10.8662 		11.9444
v 6.498 		-11.026 		19.771
v 6.498 		-10.395 		20.445
v 13.9641 		-10.611 		11.9402
v 6.498 		-9.665 		21.076
v 17.902 		-9.346 		9.5487
v 6.498 		-8.841 		21.658
v 6.498 		-7.932 		22.185
v 6.498 		-6.946 		22.653
v 6.498 		-5.894 		23.057
v 6.498 		-4.784 		23.393
v 6.498 		-3.629 		23.658
v 6.498 		-2.439 		23.849
v 16.6989 		-12.2976 		11.8614
v 16.5326 		-12.3838 		11.8594
v 16.523 		-12.3888 		11.8593
v 18.143 		-9.956 		9.867
v 16.4794 		-12.4047 		11.873
v 18.041 		-9.643 		9.867
v 17.902 		-9.346 		9.867
v 17.727 		-9.071 		9.867
v 17.519 		-8.822 		9.867
v 15.7725 		-8.6545 		11.8249
v 15.815 		-8.6571 		11.8248
v 17.282 		-8.604 		9.867
v 17.02 		-8.42 		9.867
v 15.815 		-8.647 		11.825
v 16.737 		-8.273 		9.867
v 6.498 		-1.225 		23.964
v 18.592 		-10.611 		9.56
v 14.3478 		-12.6188 		9.4897
v 18.22 		-12.069 		9.554
v 14.6102 		-12.8021 		9.494
v 14.8928 		-12.9489 		9.4984
v 11 		-7.5 		16.006
v 16.057 		-8.6897 		13.198
v 15.8992 		-8.6786 		13.198
v 16.294 		-8.7397 		13.198
v 16.3736 		-8.7682 		13.198
v 14.346 		-9.434 		13.198
v 15.1912 		-13.055 		9.5036
v 14.505 		-9.2429 		13.198
v 14.687 		-9.0749 		13.198
v 14.5677 		-9.185 		13.198
v 18.381 		-11.727 		9.556
v 14.889 		-8.9338 		13.198
v 14.7567 		-9.0262 		13.198
v 14.893 		-12.949 		9.4984
v 15.106 		-8.8211 		13.198
v 14.9642 		-8.895 		13.198
v 15.191 		-13.055 		9.5036
v 15.336 		-8.7397 		13.198
v 15.1858 		-8.7927 		13.198
v 14.348 		-12.619 		9.4897
v 14.61 		-12.802 		9.494
v 18.498 		-11.366 		9.558
v 15.5001 		-13.12 		9.5088
v 15.815 		-13.141 		9.514
v 16.129 		-13.12 		9.5192
v 16.1291 		-13.12 		9.5192
v 18.568 		-10.992 		9.56
v 16.2559 		-8.718 		11.824
v 16.2898 		-8.7296 		11.8237
v 15.5 		-13.12 		9.5088
v 18.2039 		-10.2804 		9.5539
v 16.294 		-8.713 		11.824
v 18.225 		-10.611 		9.5539
v 18.204 		-10.281 		9.5539
v 18.041 		-11.5791 		9.5504
v 15.5738 		-8.6696 		11.8249
v 15.5292 		-8.6729 		11.8248
v 15.573 		-8.663 		11.825
v 18.041 		-11.579 		9.5504
v 18.143 		-11.2661 		9.5522
v 16.0552 		-8.6776 		11.8248
v 16.0156 		-8.6696 		11.8249
v 16.057 		-8.663 		11.825
v 14.348 		-12.619 		9.867
v 14.61 		-12.802 		9.867
v 14.893 		-12.949 		9.867
v 15.191 		-13.055 		9.867
v 15.5 		-13.12 		9.867
v 15.815 		-13.141 		9.867
v 16.129 		-13.12 		9.867
v 28 		15 		0
v 25.5 		15 		0
v 17.203 		-8.085 		9.537
v 16.878 		-7.916 		9.532
v 16.534 		-7.794 		9.526
v 16.177 		-7.719 		9.52
v 15.815 		-7.694 		9.514
v 15.452 		-7.719 		9.508
v 20.566 		-7.5 		15.595
v 20.694 		-7.5 		15.457
v 20.802 		-7.5 		15.304
v 20.887 		-7.5 		15.139
v 20.95 		-7.5 		14.966
v 20.987 		-7.5 		14.785
v 21 		-7.5 		14.602
v 20.987 		-7.5 		14.419
v 15.096 		-7.794 		9.502
v 20.95 		-7.5 		14.239
v 20.887 		-7.5 		14.065
v 20.802 		-7.5 		13.9
v 20.694 		-7.5 		13.748
v 20.566 		-7.5 		13.61
v 19.889 		-7.5 		15.9605
v 19.902 		-7.5 		15.958
v 20.085 		-7.5 		15.899
v 20.259 		-7.5 		15.818
v 20.42 		-7.5 		15.716
v 20.42 		-7.5 		13.489
v 20.259 		-7.5 		13.387
v 20.085 		-7.5 		13.305
v 19.902 		-7.5 		13.246
v 19.889 		-7.5 		13.2435
v 14.752 		-7.916 		9.496
v 19.889 		-12.5024 		16.006
v 14.426 		-8.085 		9.491
v 16.1291 		-8.102 		9.5192
v 15.1912 		-8.167 		9.5036
v 15.191 		-8.167 		9.5036
v 16.129 		-8.102 		9.5192
v 15.815 		-8.081 		9.514
v 15.5001 		-8.102 		9.5088
v 15.5 		-8.102 		9.5088
v 11 		-7.5 		13.198
v 16.439 		-8.167 		9.5244
v 16.4388 		-8.167 		9.5244
v 20.566 		-13.722 		13.61
v 20.694 		-13.722 		13.748
v 20.802 		-13.722 		13.9
v 20.887 		-13.722 		14.065
v 20.95 		-13.722 		14.239
v 20.987 		-13.722 		14.419
v 21 		-13.722 		14.602
v 20.987 		-13.722 		14.785
v 11 		-13.722 		13.198
v 16.439 		-8.167 		9.867
v 28 		-13.858 		19.827
v 28 		-14.354 		18.903
v 20.95 		-13.722 		14.966
v 28 		-14.712 		17.951
v 28 		-14.928 		16.98
v 16.129 		-8.102 		9.867
v 15.815 		-8.081 		9.867
v 20.887 		-13.722 		15.139
v 15.5 		-8.102 		9.867
v 15.191 		-8.167 		9.867
v 20.802 		-13.722 		15.304
v 15.8001 		-10.8009 		16.006
v 20.694 		-13.722 		15.457
v 20.566 		-13.722 		15.595
v 15.823 		-10.7851 		16.006
v 15.8436 		-10.7664 		16.006
v 20.42 		-13.722 		15.716
v 28 		-15 		0
v 20.259 		-13.722 		15.818
v 19.889 		-12.5028 		16
v 19.889 		-13.722 		16
v 16.3053 		-12.467 		11.8688
v 16.294 		-12.471 		11.8686
v 20.085 		-13.722 		15.899
v 19.902 		-13.722 		15.958
v 19.889 		-13.722 		15.9605
v 19.902 		-13.722 		13.246
v 19.889 		-13.722 		13.2435
v 20.085 		-13.722 		13.305
v 20.259 		-13.722 		13.387
v 20.42 		-13.722 		13.489
v 25.5 		-15 		0
v 19.889 		-7.5 		16.006
v 19.148 		-13.722 		13.549
v 19.148 		-14.5 		13.549
v 14.704 		-14.5 		13.549
v 14.704 		-13.722 		13.549
v 28 		-15 		16
v 14.704 		-14.5 		16
v 19.148 		-14.5 		16
v 25.5 		-15 		16
v 19.148 		-13.722 		16
v 14.704 		-13.722 		16
v 15.3364 		-8.7145 		11.824
v 15.336 		-8.713 		11.824
v 16.2488 		-12.4806 		11.8823
v 16.0701 		-12.5175 		11.8807
v 16.057 		-12.5203 		11.8805
v 15.3244 		-8.7171 		11.8239
v 16.0107 		-12.5238 		11.8942
v 15.815 		-12.5375 		11.8906
v 15.7711 		-12.5346 		11.9039
v 15.573 		-12.5207 		11.9014
v 18.143 		-11.266 		9.5522
v 17.9019 		-11.8762 		9.5487
v 17.902 		-11.876 		9.5487
v 15.3522 		-12.4752 		11.9093
v 15.336 		-12.4717 		11.9091
v 17.7263 		-12.1518 		9.5461
v 17.727 		-12.151 		9.5461
v 15.686 		-10.611 		16.532
v 15.5321 		-12.5125 		11.9138
v 18.2039 		-10.9416 		9.5539
v 18.204 		-10.941 		9.5539
v 15.299 		-12.4588 		11.9208
v 15.1226 		-12.3958 		11.9186
v 15.106 		-12.3899 		11.9183
v 15.075 		-12.374 		11.9292
v 28 		14.928 		16.98
v 28 		14.712 		17.951
v 28 		14.354 		18.903
v 28 		13.858 		19.827
v 28 		13.229 		20.714
v 28 		12.472 		21.556
v 28 		11.595 		22.344
v 28 		10.607 		23.071
v 28 		9.516 		23.73
v 28 		8.334 		24.315
v 28 		7.071 		24.819
v 28 		5.74 		25.239
v 28 		4.354 		25.569
v 28 		2.926 		25.808
v 28 		1.47 		25.952
v 15.9034 		-10.5823 		16.006
v 15.9052 		-10.611 		16.006
v 15.8981 		-10.5541 		16.006
v 15.8892 		-10.5269 		16.006
v 15.877 		-10.5011 		16.006
v 15.877 		-10.7209 		16.006
v 15.8892 		-10.6951 		16.006
v 15.8981 		-10.6679 		16.006
v 15.9034 		-10.6397 		16.006
v 13.5786 		-13.722 		13.198
v 12.944 		-13.722 		12.31
v 13.085 		-13.722 		12.399
v 13.213 		-13.722 		12.505
v 13.325 		-13.722 		12.626
v 13.419 		-13.722 		12.76
v 13.494 		-13.722 		12.904
v 13.548 		-13.722 		13.056
v 12.465 		-13.722 		12.156
v 12.632 		-13.722 		12.187
v 12.792 		-13.722 		12.239
v 12.296 		-13.722 		12.146
v 11.0143 		-13.722 		13.198
v 11.044 		-13.722 		13.056
v 11.099 		-13.722 		12.904
v 11.174 		-13.722 		12.76
v 11.268 		-13.722 		12.626
v 11.38 		-13.722 		12.505
v 11.507 		-13.722 		12.399
v 11.648 		-13.722 		12.31
v 11.8 		-13.722 		12.239
v 11.961 		-13.722 		12.187
v 12.127 		-13.722 		12.156
v 13.611 		-8.836 		9.478
v 13.41 		-9.153 		9.474
v 13.249 		-9.495 		9.472
v 13.132 		-9.856 		9.47
v 13.061 		-10.23 		9.469
v 18.204 		-10.281 		9.867
v 18.225 		-10.611 		9.867
v 17.727 		-12.151 		9.867
v 17.902 		-11.876 		9.867
v 18.041 		-11.579 		9.867
v 18.143 		-11.266 		9.867
v 13.7281 		-9.3458 		9.4793
v 18.204 		-10.941 		9.867
v 13.728 		-9.346 		9.4793
v 13.9029 		-9.0711 		9.4828
v 18.018 		-12.387 		9.551
v 13.903 		-9.071 		9.4828
v 17.5185 		-12.4004 		9.5426
v 17.519 		-12.4 		9.5426
v 13.5882 		-9.6425 		9.4776
v 13.588 		-9.643 		9.4775
v 13.487 		-9.9559 		9.4758
v 13.487 		-9.956 		9.4758
v 17.519 		-12.4 		9.867
v 14.893 		-8.273 		9.4984
v 14.8928 		-8.2731 		9.4984
v 14.3413 		-9.4158 		11.8866
v 14.346 		-9.4084 		11.8837
v 14.6102 		-8.4199 		9.494
v 14.61 		-8.42 		9.494
v 14.3482 		-8.6038 		9.4897
v 14.4764 		-9.2517 		11.8847
v 14.505 		-9.217 		11.8696
v 14.348 		-8.604 		9.4897
v 14.6837 		-9.0518 		11.8577
v 14.687 		-9.0487 		11.8562
v 14.6529 		-9.0805 		11.8718
v 14.85 		-8.935 		11.8603
v 14.8866 		-8.9091 		11.8457
v 14.889 		-8.9075 		11.8447
v 14.893 		-8.273 		9.867
v 14.61 		-8.42 		9.867
v 14.348 		-8.604 		9.867
v 15.0643 		-8.817 		11.8484
v 15.105 		-8.7957 		11.8332
v 15.106 		-8.7952 		11.8328
v 14.124 		-8.297 		9.486
v 15.2918 		-8.729 		11.8353
v 14.111 		-8.822 		9.4862
v 14.111 		-8.822 		9.4862
v 13.5786 		-7.5 		13.198
v 13.548 		-7.5 		13.056
v 13.494 		-7.5 		12.904
v 13.419 		-7.5 		12.76
v 13.325 		-7.5 		12.626
v 13.213 		-7.5 		12.505
v 13.085 		-7.5 		12.399
v 12.944 		-7.5 		12.31
v 12.792 		-7.5 		12.239
v 12.632 		-7.5 		12.187
v 12.465 		-7.5 		12.156
v 12.296 		-7.5 		12.146
v 14.111 		-8.822 		9.867
v 11.0143 		-7.5 		13.198
v 11.648 		-7.5 		12.31
v 11.507 		-7.5 		12.399
v 11.38 		-7.5 		12.505
v 11.268 		-7.5 		12.626
v 11.174 		-7.5 		12.76
v 11.099 		-7.5 		12.904
v 11.044 		-7.5 		13.056
v 12.127 		-7.5 		12.156
v 11.961 		-7.5 		12.187
v 11.8 		-7.5 		12.239
v 14.1115 		-12.4004 		9.4862
v 14.111 		-12.4 		9.4862
v 14.111 		-12.4 		9.867
v 16.7077 		-8.9098 		11.821
v 17.0991 		-9.2188 		11.816
v 17.1096 		-9.2311 		11.8158
v 17.124 		-9.216 		11.816
v 17.2624 		-9.4111 		11.8129
v 17.2681 		-9.4198 		11.8128
v 17.284 		-9.407 		11.813
v 17.5905 		-10.0918 		11.8029
v 17.4008 		-9.6244 		11.8099
v 17.4029 		-9.6288 		11.8098
v 17.604 		-10.088 		11.803
v 17.5929 		-10.099 		11.8028
v 17.5114 		-9.8551 		11.8069
v 17.5107 		-9.8536 		11.8069
# 735 vertices

g group_0_16089887

usemtl color_16089887
s 0

f 3 	4 	6
f 3 	6 	8
f 9 	409 	10
f 409 	407 	11
f 10 	409 	11
f 12 	13 	649
f 20 	12 	19
f 18 	19 	649
f 649 	19 	12
f 16 	21 	17
f 22 	17 	21
f 16 	26 	21
f 39 	17 	28
f 24 	25 	15
f 15 	14 	24
f 23 	24 	14
f 27 	39 	28
f 22 	28 	17
f 26 	36 	21
f 21 	37 	22
f 28 	22 	37
f 25 	29 	15
f 29 	16 	15
f 26 	16 	29
f 35 	24 	33
f 23 	33 	24
f 24 	35 	25
f 29 	25 	35
f 29 	36 	26
f 38 	28 	37
f 23 	14 	30
f 14 	12 	30
f 20 	30 	12
f 32 	20 	19
f 33 	30 	32
f 20 	32 	30
f 30 	33 	23
f 19 	18 	31
f 18 	667 	31
f 19 	31 	32
f 3 	357 	34
f 3 	34 	4
f 36 	29 	35
f 37 	21 	36
f 721 	720 	38
f 32 	31 	650
f 407 	650 	31
f 31 	11 	407
f 48 	49 	46
f 50 	46 	49
f 49 	52 	50
f 68 	69 	54
f 67 	70 	71
f 453 	456 	69
f 76 	62 	73
f 72 	73 	57
f 77 	62 	76
f 237 	240 	54
f 57 	73 	62
f 67 	71 	66
f 64 	66 	71
f 63 	64 	71
f 61 	63 	71
f 60 	61 	71
f 59 	60 	71
f 58 	59 	71
f 55 	58 	71
f 51 	55 	71
f 47 	51 	71
f 45 	47 	71
f 42 	45 	71
f 41 	42 	71
f 75 	41 	71
f 74 	75 	71
f 239 	242 	50
f 76 	98 	77
f 72 	57 	84
f 56 	84 	57
f 77 	65 	62
f 84 	95 	72
f 89 	56 	88
f 81 	88 	53
f 84 	56 	89
f 88 	56 	53
f 88 	81 	92
f 446 	451 	236
f 95 	89 	92
f 88 	92 	89
f 73 	72 	96
f 95 	96 	72
f 89 	95 	84
f 98 	76 	96
f 73 	96 	76
f 96 	469 	98
f 95 	469 	96
f 92 	469 	95
f 105 	103 	102
f 105 	102 	104
f 238 	446 	236
f 100 	99 	107
f 97 	107 	99
f 97 	99 	91
f 109 	110 	108
f 104 	100 	105
f 107 	105 	100
f 108 	110 	111
f 108 	111 	455
f 344 	110 	112
f 116 	2 	1
f 3 	117 	1
f 8 	117 	3
f 116 	1 	117
f 119 	118 	121
f 124 	122 	123
f 125 	126 	118
f 125 	118 	119
f 122 	127 	128
f 125 	119 	128
f 119 	123 	128
f 122 	128 	123
f 130 	131 	119
f 123 	132 	133
f 119 	131 	132
f 119 	132 	123
f 130 	121 	133
f 119 	121 	130
f 121 	124 	133
f 123 	133 	124
f 126 	135 	118
f 122 	136 	127
f 121 	118 	135
f 121 	135 	136
f 122 	124 	136
f 121 	136 	124
f 125 	131 	130
f 125 	130 	135
f 125 	135 	126
f 127 	136 	128
f 136 	133 	128
f 132 	128 	133
f 131 	125 	128
f 131 	128 	132
f 133 	136 	135
f 133 	135 	130
f 147 	148 	146
f 145 	146 	148
f 144 	145 	148
f 143 	144 	148
f 142 	143 	148
f 141 	142 	148
f 140 	141 	148
f 148 	150 	151
f 148 	151 	152
f 148 	152 	154
f 148 	154 	155
f 148 	155 	156
f 148 	156 	157
f 148 	157 	140
f 163 	148 	162
f 164 	148 	163
f 165 	148 	164
f 166 	148 	165
f 167 	148 	166
f 168 	148 	167
f 169 	148 	168
f 172 	148 	171
f 173 	148 	172
f 174 	148 	173
f 175 	148 	174
f 176 	148 	175
f 177 	148 	176
f 149 	148 	177
f 161 	162 	148
f 178 	148 	179
f 169 	171 	148
f 149 	150 	148
f 178 	161 	148
f 320 	319 	153
f 2 	148 	147
f 320 	153 	158
f 183 	341 	180
f 551 	408 	195
f 199 	579 	198
f 202 	591 	200
f 595 	594 	205
f 210 	208 	314
f 105 	366 	103
f 314 	597 	210
f 622 	695 	182
f 367 	368 	232
f 234 	365 	233
f 251 	250 	233
f 134 	695 	137
f 233 	426 	695
f 237 	233 	240
f 240 	233 	239
f 242 	233 	241
f 239 	233 	242
f 244 	233 	243
f 241 	233 	244
f 248 	249 	233
f 243 	233 	245
f 245 	233 	247
f 247 	233 	246
f 248 	233 	250
f 246 	233 	249
f 254 	255 	648
f 253 	341 	183
f 254 	253 	183
f 255 	254 	129
f 183 	129 	254
f 267 	1 	264
f 129 	134 	255
f 358 	267 	264
f 358 	264 	262
f 358 	262 	261
f 358 	261 	259
f 358 	259 	257
f 358 	257 	222
f 358 	222 	219
f 358 	219 	217
f 358 	217 	215
f 358 	215 	213
f 358 	213 	212
f 358 	212 	211
f 358 	211 	209
f 358 	209 	207
f 358 	207 	203
f 358 	203 	204
f 268 	266 	134
f 255 	134 	266
f 276 	278 	646
f 275 	274 	137
f 274 	268 	137
f 134 	137 	268
f 137 	138 	275
f 276 	275 	138
f 671 	672 	645
f 645 	646 	278
f 107 	234 	105
f 234 	366 	105
f 276 	138 	139
f 236 	367 	238
f 446 	238 	279
f 367 	279 	238
f 325 	660 	324
f 660 	333 	65
f 335 	65 	333
f 294 	295 	296
f 579 	580 	301
f 62 	65 	336
f 305 	446 	279
f 306 	435 	305
f 316 	435 	306
f 446 	305 	435
f 53 	576 	301
f 579 	301 	577
f 306 	305 	372
f 331 	39 	330
f 315 	106 	314
f 367 	369 	279
f 208 	315 	314
f 422 	435 	317
f 318 	422 	317
f 71 	296 	295
f 71 	295 	297
f 71 	297 	298
f 71 	298 	299
f 71 	299 	300
f 71 	300 	302
f 71 	302 	303
f 71 	303 	304
f 71 	304 	307
f 71 	307 	308
f 71 	308 	309
f 71 	309 	310
f 71 	310 	311
f 71 	311 	312
f 71 	312 	313
f 71 	313 	74
f 372 	374 	316
f 71 	70 	294
f 316 	306 	372
f 320 	101 	319
f 321 	101 	320
f 315 	319 	106
f 71 	294 	296
f 208 	153 	319
f 373 	318 	317
f 319 	315 	208
f 158 	321 	320
f 422 	324 	660
f 327 	40 	326
f 330 	40 	327
f 101 	329 	40
f 159 	160 	326
f 377 	325 	324
f 327 	326 	160
f 326 	40 	329
f 321 	329 	101
f 326 	329 	159
f 321 	158 	329
f 158 	159 	329
f 373 	378 	328
f 328 	318 	373
f 331 	330 	170
f 170 	330 	160
f 327 	160 	330
f 170 	334 	331
f 333 	332 	379
f 377 	379 	332
f 334 	350 	39
f 363 	17 	351
f 377 	332 	325
f 40 	330 	39
f 334 	39 	331
f 336 	337 	62
f 337 	342 	62
f 376 	15 	375
f 379 	381 	335
f 354 	16 	363
f 335 	333 	379
f 39 	350 	17
f 17 	363 	16
f 382 	192 	338
f 343 	340 	649
f 649 	340 	341
f 648 	649 	253
f 338 	62 	342
f 649 	13 	343
f 181 	180 	340
f 290 	344 	112
f 109 	112 	110
f 341 	340 	180
f 182 	181 	13
f 343 	13 	181
f 340 	343 	181
f 345 	346 	93
f 347 	94 	346
f 346 	94 	93
f 349 	477 	348
f 477 	94 	348
f 351 	17 	350
f 347 	348 	94
f 170 	184 	334
f 350 	334 	184
f 184 	185 	350
f 351 	350 	185
f 346 	415 	347
f 15 	371 	14
f 354 	355 	16
f 375 	16 	355
f 345 	93 	353
f 93 	356 	353
f 355 	354 	186
f 162 	161 	8
f 357 	3 	358
f 352 	353 	356
f 187 	186 	354
f 359 	360 	478
f 251 	233 	252
f 363 	185 	187
f 418 	529 	360
f 252 	233 	365
f 366 	234 	232
f 233 	232 	234
f 478 	477 	359
f 368 	366 	232
f 351 	185 	363
f 354 	363 	187
f 349 	359 	477
f 367 	232 	369
f 15 	370 	371
f 391 	14 	371
f 369 	232 	372
f 372 	232 	374
f 373 	374 	232
f 379 	232 	381
f 16 	375 	15
f 15 	376 	370
f 378 	232 	377
f 373 	232 	378
f 418 	360 	359
f 418 	359 	349
f 348 	416 	349
f 188 	375 	186
f 376 	375 	188
f 381 	232 	380
f 355 	186 	375
f 380 	232 	382
f 383 	384 	390
f 376 	188 	189
f 385 	695 	387
f 387 	695 	386
f 189 	371 	370
f 189 	370 	376
f 14 	388 	389
f 390 	384 	356
f 352 	356 	384
f 14 	391 	388
f 337 	380 	342
f 338 	342 	382
f 396 	410 	383
f 388 	391 	191
f 389 	388 	191
f 190 	191 	391
f 384 	411 	352
f 411 	412 	352
f 346 	345 	415
f 416 	347 	415
f 189 	190 	371
f 391 	371 	190
f 12 	394 	13
f 14 	389 	12
f 394 	12 	389
f 13 	394 	182
f 383 	390 	396
f 290 	396 	344
f 394 	389 	182
f 191 	182 	389
f 344 	396 	390
f 551 	53 	56
f 108 	407 	109
f 407 	409 	109
f 339 	57 	338
f 404 	57 	339
f 62 	338 	57
f 112 	409 	290
f 404 	405 	57
f 56 	405 	406
f 384 	383 	411
f 353 	412 	345
f 192 	193 	404
f 404 	339 	192
f 193 	194 	405
f 420 	458 	111
f 194 	406 	405
f 56 	406 	408
f 112 	109 	409
f 396 	290 	410
f 410 	290 	409
f 195 	408 	194
f 411 	383 	410
f 353 	352 	412
f 415 	345 	412
f 348 	347 	416
f 418 	349 	416
f 414 	413 	417
f 411 	707 	412
f 410 	9 	411
f 409 	9 	410
f 415 	686 	416
f 412 	687 	415
f 357 	358 	361
f 362 	361 	358
f 364 	362 	358
f 392 	364 	358
f 393 	392 	358
f 395 	393 	358
f 397 	395 	358
f 398 	397 	358
f 399 	398 	358
f 400 	399 	358
f 401 	400 	358
f 204 	419 	358
f 419 	403 	358
f 403 	402 	358
f 401 	358 	402
f 335 	336 	65
f 1 	267 	358
f 332 	333 	660
f 1 	358 	3
f 179 	116 	178
f 117 	178 	116
f 117 	8 	178
f 161 	178 	8
f 179 	2 	116
f 148 	2 	179
f 423 	424 	106
f 427 	695 	426
f 429 	428 	233
f 237 	429 	233
f 386 	695 	427
f 424 	113 	106
f 426 	233 	428
f 430 	695 	432
f 328 	324 	422
f 332 	660 	325
f 434 	695 	433
f 436 	437 	695
f 432 	695 	434
f 433 	695 	437
f 443 	439 	695
f 114 	113 	441
f 436 	695 	440
f 443 	695 	442
f 442 	695 	385
f 431 	114 	441
f 439 	440 	695
f 438 	441 	113
f 424 	438 	113
f 129 	695 	134
f 470 	438 	424
f 445 	469 	423
f 137 	695 	138
f 470 	441 	438
f 139 	695 	430
f 138 	695 	139
f 316 	317 	435
f 421 	444 	101
f 445 	101 	444
f 208 	622 	153
f 159 	622 	160
f 159 	158 	622
f 423 	106 	445
f 445 	106 	101
f 158 	153 	622
f 160 	622 	170
f 328 	422 	318
f 129 	183 	695
f 695 	180 	181
f 182 	695 	181
f 180 	695 	183
f 185 	184 	622
f 184 	170 	622
f 120 	115 	448
f 447 	448 	115
f 187 	622 	186
f 187 	185 	622
f 450 	301 	449
f 186 	622 	188
f 188 	622 	189
f 449 	301 	448
f 448 	301 	120
f 622 	191 	190
f 189 	622 	190
f 182 	191 	622
f 382 	232 	192
f 193 	192 	232
f 622 	198 	232
f 379 	377 	232
f 193 	232 	194
f 450 	81 	53
f 195 	194 	232
f 103 	236 	451
f 102 	103 	451
f 53 	301 	450
f 195 	232 	196
f 197 	232 	198
f 447 	472 	448
f 196 	232 	197
f 460 	462 	413
f 447 	115 	454
f 100 	104 	420
f 451 	104 	102
f 431 	454 	114
f 115 	114 	454
f 453 	452 	456
f 467 	456 	452
f 455 	407 	108
f 54 	69 	456
f 423 	469 	424
f 458 	420 	457
f 455 	111 	458
f 441 	471 	431
f 454 	472 	447
f 81 	450 	474
f 417 	413 	462
f 444 	421 	468
f 464 	446 	463
f 452 	480 	465
f 469 	445 	468
f 444 	468 	445
f 470 	424 	469
f 452 	465 	467
f 471 	441 	470
f 472 	454 	471
f 431 	471 	454
f 465 	466 	467
f 414 	417 	466
f 467 	466 	417
f 448 	473 	449
f 449 	474 	450
f 467 	417 	427
f 460 	461 	462
f 473 	448 	472
f 474 	449 	473
f 92 	81 	474
f 92 	474 	473
f 92 	473 	472
f 92 	472 	471
f 92 	471 	470
f 92 	470 	469
f 468 	98 	469
f 467 	426 	456
f 428 	429 	456
f 208 	210 	622
f 622 	202 	200
f 199 	198 	622
f 200 	199 	622
f 202 	622 	201
f 201 	622 	205
f 206 	205 	622
f 452 	453 	479
f 206 	622 	210
f 453 	69 	479
f 419 	313 	403
f 486 	497 	485
f 484 	485 	497
f 487 	497 	486
f 488 	497 	487
f 489 	497 	488
f 490 	497 	489
f 492 	497 	490
f 493 	497 	492
f 494 	497 	493
f 495 	497 	494
f 496 	497 	495
f 499 	500 	497
f 500 	501 	497
f 501 	483 	497
f 483 	484 	497
f 498 	499 	497
f 497 	496 	502
f 497 	502 	503
f 497 	503 	504
f 497 	504 	505
f 497 	505 	506
f 361 	297 	295
f 511 	512 	491
f 482 	516 	491
f 511 	491 	516
f 539 	685 	512
f 514 	480 	513
f 510 	513 	480
f 480 	514 	481
f 515 	516 	482
f 4 	34 	425
f 512 	511 	539
f 538 	539 	516
f 493 	523 	494
f 493 	492 	523
f 524 	523 	492
f 490 	524 	492
f 532 	527 	487
f 481 	514 	482
f 515 	482 	514
f 486 	532 	487
f 425 	517 	4
f 536 	514 	513
f 483 	543 	484
f 483 	501 	543
f 514 	538 	515
f 548 	501 	500
f 553 	548 	499
f 500 	499 	548
f 505 	556 	557
f 505 	557 	506
f 556 	505 	504
f 502 	496 	520
f 495 	521 	496
f 494 	522 	495
f 523 	522 	494
f 519 	479 	518
f 360 	518 	478
f 490 	525 	524
f 489 	526 	525
f 489 	525 	490
f 478 	518 	479
f 526 	489 	527
f 488 	527 	489
f 488 	487 	527
f 480 	479 	510
f 486 	537 	532
f 485 	540 	537
f 485 	537 	486
f 484 	542 	485
f 519 	510 	479
f 553 	499 	498
f 555 	498 	497
f 513 	510 	535
f 510 	519 	535
f 529 	535 	519
f 518 	529 	519
f 503 	559 	504
f 535 	536 	513
f 536 	538 	514
f 516 	515 	538
f 520 	496 	521
f 511 	516 	539
f 522 	521 	495
f 517 	528 	4
f 6 	4 	528
f 518 	360 	529
f 534 	606 	533
f 293 	166 	165
f 530 	293 	165
f 531 	165 	164
f 533 	531 	163
f 164 	163 	531
f 163 	162 	533
f 540 	485 	542
f 538 	536 	539
f 539 	536 	535
f 539 	535 	529
f 543 	542 	484
f 99 	100 	111
f 546 	543 	501
f 165 	531 	530
f 295 	294 	508
f 533 	162 	534
f 110 	91 	111
f 734 	729 	344
f 428 	456 	426
f 501 	548 	546
f 56 	408 	551
f 53 	551 	552
f 385 	387 	462
f 552 	551 	196
f 553 	498 	554
f 498 	555 	554
f 195 	196 	551
f 467 	427 	426
f 386 	427 	417
f 504 	558 	556
f 390 	735 	344
f 558 	504 	559
f 502 	560 	559
f 503 	502 	559
f 520 	560 	502
f 475 	322 	547
f 573 	461 	491
f 547 	561 	476
f 547 	476 	475
f 563 	564 	565
f 563 	565 	566
f 406 	194 	408
f 569 	570 	568
f 8 	568 	570
f 570 	162 	8
f 567 	534 	570
f 162 	570 	534
f 547 	567 	561
f 570 	561 	567
f 564 	569 	568
f 564 	568 	565
f 232 	233 	557
f 569 	571 	550
f 569 	550 	570
f 571 	569 	564
f 571 	564 	563
f 8 	6 	568
f 572 	568 	6
f 726 	727 	356
f 566 	565 	568
f 566 	568 	572
f 555 	497 	549
f 233 	506 	557
f 727 	730 	356
f 550 	555 	549
f 549 	497 	508
f 522 	523 	521
f 520 	521 	523
f 520 	523 	524
f 520 	524 	525
f 520 	525 	526
f 520 	526 	527
f 520 	527 	532
f 520 	532 	537
f 520 	537 	540
f 520 	540 	542
f 558 	559 	553
f 520 	542 	543
f 556 	558 	553
f 553 	554 	556
f 555 	556 	554
f 575 	576 	53
f 577 	301 	576
f 562 	508 	497
f 53 	552 	575
f 559 	560 	546
f 546 	548 	559
f 543 	546 	560
f 520 	543 	560
f 548 	553 	559
f 576 	575 	197
f 196 	197 	575
f 557 	556 	555
f 552 	196 	575
f 557 	563 	232
f 566 	232 	563
f 197 	198 	576
f 198 	577 	576
f 482 	491 	461
f 591 	115 	582
f 582 	115 	581
f 507 	509 	688
f 578 	574 	573
f 581 	120 	580
f 120 	301 	580
f 462 	461 	574
f 574 	461 	573
f 295 	357 	361
f 580 	579 	199
f 198 	579 	577
f 574 	578 	443
f 299 	364 	392
f 140 	605 	604
f 463 	446 	435
f 459 	463 	435
f 464 	583 	446
f 304 	398 	307
f 723 	724 	93
f 585 	653 	459
f 356 	93 	726
f 155 	608 	156
f 308 	307 	398
f 34 	357 	508
f 609 	155 	154
f 582 	581 	200
f 154 	152 	609
f 199 	200 	581
f 199 	581 	580
f 459 	435 	585
f 584 	585 	422
f 595 	113 	594
f 422 	585 	435
f 114 	586 	587
f 114 	587 	594
f 203 	75 	204
f 202 	201 	586
f 653 	654 	459
f 587 	586 	201
f 584 	422 	589
f 114 	115 	586
f 588 	589 	660
f 660 	589 	422
f 120 	581 	115
f 586 	591 	202
f 582 	200 	591
f 457 	420 	593
f 592 	593 	451
f 451 	593 	420
f 651 	650 	457
f 106 	319 	101
f 407 	455 	650
f 113 	595 	596
f 593 	657 	457
f 446 	583 	451
f 592 	451 	583
f 587 	201 	594
f 201 	205 	594
f 595 	205 	206
f 653 	585 	584
f 206 	596 	595
f 463 	654 	464
f 654 	655 	464
f 113 	597 	106
f 583 	655 	592
f 314 	106 	597
f 113 	596 	597
f 596 	206 	597
f 210 	597 	206
f 458 	457 	650
f 322 	598 	547
f 561 	70 	476
f 458 	650 	455
f 475 	476 	322
f 230 	231 	590
f 589 	652 	584
f 231 	235 	590
f 463 	459 	654
f 599 	547 	598
f 600 	547 	599
f 601 	547 	600
f 602 	547 	601
f 603 	547 	602
f 604 	547 	603
f 605 	547 	604
f 608 	606 	607
f 609 	606 	608
f 610 	606 	609
f 611 	606 	610
f 612 	606 	611
f 79 	606 	612
f 606 	547 	605
f 583 	464 	655
f 655 	657 	592
f 593 	592 	657
f 606 	79 	78
f 606 	78 	80
f 606 	80 	82
f 606 	82 	83
f 606 	83 	85
f 606 	85 	86
f 606 	86 	87
f 606 	87 	90
f 606 	90 	291
f 606 	291 	292
f 292 	293 	606
f 651 	457 	657
f 293 	530 	606
f 531 	533 	606
f 567 	606 	534
f 530 	531 	606
f 258 	260 	590
f 260 	263 	590
f 550 	571 	555
f 571 	563 	555
f 557 	555 	563
f 570 	550 	294
f 549 	294 	550
f 614 	508 	613
f 620 	508 	621
f 615 	613 	562
f 508 	562 	613
f 615 	562 	616
f 616 	562 	617
f 566 	572 	622
f 214 	617 	562
f 508 	618 	277
f 618 	508 	619
f 620 	619 	508
f 614 	621 	508
f 232 	566 	622
f 222 	60 	219
f 214 	562 	216
f 221 	562 	223
f 216 	562 	218
f 222 	257 	60
f 61 	60 	257
f 630 	631 	622
f 623 	624 	622
f 624 	625 	622
f 626 	629 	625
f 627 	629 	626
f 628 	629 	627
f 622 	625 	629
f 218 	562 	220
f 562 	225 	224
f 220 	562 	221
f 632 	622 	631
f 623 	622 	632
f 257 	63 	61
f 226 	225 	425
f 606 	157 	607
f 223 	562 	224
f 607 	156 	608
f 66 	264 	67
f 509 	691 	682
f 1 	70 	264
f 67 	264 	70
f 175 	82 	80
f 692 	507 	690
f 82 	175 	174
f 578 	573 	491
f 173 	172 	85
f 263 	265 	590
f 265 	269 	590
f 269 	270 	590
f 401 	310 	309
f 209 	42 	41
f 270 	271 	590
f 311 	402 	312
f 312 	403 	313
f 272 	590 	271
f 42 	209 	45
f 74 	313 	204
f 419 	204 	313
f 590 	272 	273
f 562 	425 	225
f 506 	695 	497
f 233 	695 	506
f 273 	280 	590
f 227 	226 	425
f 280 	281 	590
f 228 	425 	229
f 230 	425 	231
f 281 	282 	590
f 231 	425 	235
f 235 	425 	256
f 219 	59 	58
f 282 	283 	590
f 425 	34 	263
f 258 	256 	425
f 265 	263 	34
f 59 	219 	60
f 283 	284 	590
f 284 	285 	590
f 258 	425 	260
f 260 	425 	263
f 44 	728 	247
f 285 	286 	590
f 286 	287 	590
f 287 	288 	590
f 288 	289 	590
f 54 	429 	237
f 240 	239 	50
f 289 	541 	590
f 50 	54 	240
f 541 	544 	590
f 241 	46 	242
f 544 	545 	590
f 46 	50 	242
f 241 	244 	46
f 83 	82 	174
f 545 	277 	590
f 174 	85 	83
f 277 	618 	590
f 245 	728 	243
f 172 	87 	86
f 44 	247 	246
f 249 	248 	43
f 43 	44 	249
f 246 	249 	44
f 90 	87 	169
f 97 	732 	251
f 169 	291 	90
f 292 	291 	167
f 167 	293 	292
f 236 	103 	368
f 236 	368 	367
f 549 	508 	294
f 361 	298 	297
f 299 	392 	300
f 300 	392 	302
f 613 	590 	614
f 613 	615 	590
f 251 	252 	97
f 615 	616 	590
f 252 	365 	97
f 107 	97 	365
f 107 	365 	234
f 616 	617 	590
f 366 	368 	103
f 401 	402 	310
f 305 	369 	372
f 305 	279 	369
f 317 	316 	374
f 317 	374 	373
f 570 	294 	561
f 70 	561 	294
f 323 	476 	70
f 378 	377 	324
f 598 	322 	323
f 324 	328 	378
f 336 	335 	381
f 381 	380 	336
f 337 	336 	380
f 600 	144 	601
f 339 	338 	192
f 382 	342 	380
f 144 	602 	601
f 405 	404 	193
f 155 	609 	608
f 417 	462 	387
f 386 	417 	387
f 611 	150 	612
f 54 	456 	429
f 150 	79 	612
f 590 	617 	214
f 590 	214 	216
f 220 	221 	590
f 528 	634 	6
f 269 	265 	34
f 622 	572 	6
f 270 	34 	271
f 271 	34 	272
f 272 	34 	273
f 682 	691 	680
f 636 	622 	635
f 637 	622 	636
f 638 	622 	637
f 639 	622 	638
f 634 	635 	622
f 640 	622 	639
f 641 	622 	640
f 642 	622 	641
f 642 	643 	622
f 622 	6 	634
f 677 	681 	5
f 644 	622 	643
f 630 	622 	633
f 644 	633 	622
f 281 	280 	34
f 676 	677 	5
f 280 	273 	34
f 281 	34 	282
f 282 	34 	283
f 283 	34 	284
f 34 	508 	286
f 284 	34 	285
f 590 	235 	256
f 285 	34 	286
f 541 	289 	508
f 256 	258 	590
f 287 	286 	508
f 288 	287 	508
f 289 	288 	508
f 541 	508 	544
f 277 	545 	508
f 544 	508 	545
f 270 	269 	34
f 229 	425 	230
f 228 	227 	425
f 668 	652 	588
f 653 	584 	652
f 70 	1 	323
f 2 	323 	1
f 147 	598 	2
f 323 	2 	598
f 147 	146 	598
f 599 	598 	146
f 145 	600 	146
f 599 	146 	600
f 341 	253 	649
f 600 	145 	144
f 589 	588 	652
f 602 	144 	143
f 143 	603 	602
f 142 	603 	143
f 603 	142 	604
f 141 	604 	142
f 645 	659 	646
f 604 	141 	140
f 37 	36 	654
f 36 	35 	654
f 654 	653 	37
f 653 	652 	37
f 38 	37 	652
f 721 	38 	652
f 668 	721 	652
f 657 	655 	35
f 140 	157 	605
f 606 	605 	157
f 56 	57 	405
f 9 	658 	656
f 156 	607 	157
f 656 	646 	659
f 610 	609 	152
f 152 	151 	611
f 152 	611 	610
f 611 	151 	150
f 79 	150 	149
f 656 	658 	646
f 74 	204 	75
f 664 	658 	10
f 5 	694 	645
f 645 	661 	659
f 663 	588 	660
f 663 	660 	65
f 662 	663 	65
f 666 	648 	665
f 662 	668 	663
f 648 	647 	665
f 664 	665 	647
f 662 	65 	77
f 668 	662 	98
f 648 	667 	649
f 666 	667 	648
f 588 	663 	668
f 295 	508 	357
f 77 	98 	662
f 18 	649 	667
f 11 	667 	666
f 11 	666 	665
f 10 	11 	665
f 98 	721 	668
f 11 	31 	667
f 452 	479 	480
f 466 	465 	480
f 664 	647 	658
f 414 	466 	481
f 413 	414 	481
f 461 	460 	482
f 482 	460 	413
f 481 	482 	413
f 646 	658 	647
f 590 	618 	619
f 692 	578 	491
f 7 	661 	694
f 619 	620 	590
f 688 	689 	507
f 491 	507 	692
f 7 	9 	659
f 661 	7 	659
f 656 	659 	9
f 621 	590 	620
f 682 	683 	509
f 684 	688 	509
f 621 	614 	590
f 10 	665 	664
f 9 	10 	658
f 590 	227 	228
f 590 	228 	229
f 229 	230 	590
f 670 	507 	669
f 507 	491 	512
f 669 	507 	512
f 590 	216 	218
f 220 	590 	218
f 590 	221 	223
f 223 	224 	590
f 670 	509 	507
f 224 	225 	590
f 590 	225 	226
f 672 	676 	645
f 227 	590 	226
f 672 	671 	430
f 207 	41 	203
f 75 	203 	41
f 139 	430 	671
f 278 	276 	139
f 41 	207 	209
f 675 	691 	674
f 671 	278 	139
f 209 	211 	45
f 673 	674 	509
f 212 	47 	211
f 45 	211 	47
f 672 	430 	676
f 432 	676 	430
f 213 	51 	212
f 47 	212 	51
f 677 	676 	432
f 686 	687 	674
f 55 	51 	215
f 213 	215 	51
f 691 	681 	679
f 691 	679 	680
f 691 	5 	681
f 217 	58 	215
f 55 	215 	58
f 673 	509 	670
f 58 	217 	219
f 679 	434 	433
f 433 	680 	679
f 686 	670 	685
f 669 	685 	670
f 63 	257 	259
f 679 	681 	434
f 261 	64 	259
f 63 	259 	64
f 681 	677 	434
f 674 	673 	686
f 432 	434 	677
f 66 	64 	262
f 261 	262 	64
f 675 	674 	687
f 684 	509 	683
f 687 	707 	678
f 66 	262 	264
f 669 	512 	685
f 433 	437 	680
f 673 	670 	686
f 680 	437 	682
f 683 	682 	437
f 79 	149 	78
f 177 	78 	149
f 80 	78 	176
f 177 	176 	78
f 684 	683 	436
f 176 	175 	80
f 678 	675 	687
f 85 	174 	173
f 437 	436 	683
f 86 	85 	172
f 398 	399 	308
f 418 	686 	529
f 685 	529 	686
f 539 	529 	685
f 686 	415 	687
f 416 	686 	418
f 308 	399 	400
f 308 	400 	309
f 690 	507 	689
f 309 	400 	401
f 311 	310 	402
f 403 	312 	402
f 684 	436 	440
f 684 	440 	688
f 689 	688 	440
f 690 	689 	439
f 440 	439 	689
f 5 	645 	676
f 274 	275 	646
f 442 	574 	443
f 266 	268 	647
f 695 	425 	497
f 690 	439 	443
f 509 	674 	691
f 692 	443 	578
f 690 	443 	692
f 385 	462 	574
f 442 	385 	574
f 693 	694 	5
f 661 	645 	694
f 268 	274 	647
f 646 	647 	274
f 697 	698 	696
f 698 	699 	696
f 699 	700 	696
f 695 	696 	700
f 695 	700 	701
f 695 	701 	702
f 703 	704 	695
f 702 	703 	695
f 253 	254 	648
f 648 	255 	266
f 647 	648 	266
f 693 	5 	678
f 705 	695 	704
f 706 	716 	695
f 716 	717 	695
f 705 	706 	695
f 278 	671 	645
f 678 	5 	691
f 675 	678 	691
f 275 	276 	646
f 562 	497 	425
f 694 	693 	707
f 693 	678 	707
f 694 	707 	7
f 707 	411 	7
f 7 	411 	9
f 517 	425 	708
f 695 	708 	425
f 711 	712 	695
f 713 	695 	712
f 714 	695 	713
f 715 	695 	714
f 708 	695 	715
f 710 	711 	695
f 718 	709 	695
f 709 	710 	695
f 717 	718 	695
f 687 	412 	707
f 87 	172 	171
f 650 	651 	32
f 87 	171 	169
f 291 	169 	168
f 33 	32 	651
f 168 	167 	291
f 293 	167 	166
f 40 	39 	720
f 362 	298 	361
f 298 	362 	364
f 298 	364 	299
f 302 	392 	393
f 28 	38 	27
f 395 	303 	393
f 302 	393 	303
f 303 	395 	397
f 303 	397 	304
f 304 	397 	398
f 651 	657 	33
f 35 	33 	657
f 695 	622 	696
f 114 	594 	113
f 591 	586 	115
f 624 	702 	701
f 700 	624 	701
f 101 	40 	421
f 626 	700 	699
f 626 	699 	627
f 698 	627 	699
f 719 	421 	40
f 697 	627 	698
f 719 	721 	421
f 632 	631 	703
f 702 	632 	703
f 635 	708 	715
f 636 	635 	714
f 715 	714 	635
f 720 	719 	40
f 27 	720 	39
f 636 	714 	713
f 709 	641 	710
f 641 	709 	718
f 721 	468 	421
f 720 	721 	719
f 27 	38 	720
f 697 	628 	627
f 98 	468 	721
f 655 	654 	35
f 697 	696 	628
f 629 	628 	696
f 567 	547 	606
f 629 	696 	622
f 705 	633 	706
f 323 	322 	476
f 704 	631 	705
f 704 	703 	631
f 420 	111 	100
f 451 	420 	104
f 634 	517 	708
f 480 	481 	466
f 711 	639 	712
f 99 	111 	91
f 644 	716 	633
f 623 	632 	702
f 624 	623 	702
f 724 	726 	93
f 700 	625 	624
f 626 	625 	700
f 49 	48 	94
f 48 	723 	94
f 722 	52 	477
f 52 	49 	477
f 94 	477 	49
f 705 	630 	633
f 69 	68 	478
f 68 	722 	478
f 477 	478 	722
f 631 	630 	705
f 517 	634 	528
f 478 	479 	69
f 634 	708 	635
f 52 	722 	50
f 54 	50 	722
f 636 	713 	637
f 638 	637 	712
f 713 	712 	637
f 722 	68 	54
f 712 	639 	638
f 710 	640 	639
f 711 	710 	639
f 641 	640 	710
f 718 	642 	641
f 717 	643 	642
f 717 	642 	718
f 643 	717 	644
f 716 	644 	717
f 706 	633 	716
f 93 	94 	723
f 48 	46 	723
f 725 	723 	46
f 724 	723 	725
f 730 	731 	390
f 390 	356 	730
f 727 	726 	728
f 725 	728 	726
f 726 	724 	725
f 729 	110 	344
f 731 	735 	390
f 734 	344 	735
f 729 	734 	732
f 733 	91 	110
f 110 	729 	733
f 732 	97 	733
f 91 	733 	97
f 732 	733 	729
f 250 	732 	248
f 731 	730 	44
f 727 	728 	730
f 44 	730 	728
f 43 	732 	734
f 43 	734 	735
f 43 	248 	732
f 250 	251 	732
f 735 	731 	43
f 44 	43 	731
f 46 	244 	725
f 243 	725 	244
f 725 	243 	728
f 245 	247 	728
# 1466 faces

 #end of obj_0

